<svg xmlns="http://www.w3.org/2000/svg" xmlns:xlink="http://www.w3.org/1999/xlink" width="512" zoomAndPan="magnify" viewBox="0 0 384 383.999986" height="512" preserveAspectRatio="xMidYMid meet" version="1.0"><defs><clipPath id="9af6e898f0"><path d="M 52.21875 66.046875 L 331.96875 66.046875 L 331.96875 318.046875 L 52.21875 318.046875 Z M 52.21875 66.046875 " clip-rule="nonzero"/></clipPath></defs><g clip-path="url(#9af6e898f0)"><path fill="#40df9f" d="M 320.308594 94.339844 C 320.320312 94.339844 320.335938 94.363281 320.351562 94.40625 C 320.386719 94.585938 320.386719 94.867188 320.351562 95.03125 C 320.335938 95.082031 320.324219 95.105469 320.3125 95.105469 C 320.28125 95.105469 320.265625 94.964844 320.261719 94.726562 C 320.261719 94.484375 320.28125 94.339844 320.308594 94.339844 Z M 146.65625 66.050781 C 146.238281 66.050781 145.953125 66.160156 145.632812 66.417969 C 145.257812 66.722656 145.167969 66.9375 145.171875 67.59375 C 145.175781 68.308594 145.265625 68.484375 145.855469 69.050781 C 146.230469 69.40625 146.945312 70.082031 147.445312 70.542969 C 147.929688 71.003906 148.664062 71.820312 149.039062 72.351562 C 149.414062 72.886719 149.917969 73.398438 150.148438 73.523438 C 150.363281 73.648438 150.542969 73.84375 150.542969 73.949219 C 150.542969 74.074219 150.703125 74.375 150.917969 74.625 L 151.277344 75.085938 L 150.886719 75.621094 C 150.691406 75.902344 150.476562 76.109375 150.40625 76.109375 C 150.398438 76.109375 150.394531 76.105469 150.390625 76.105469 C 149.605469 75.679688 147.519531 74.957031 146.449219 74.765625 C 146.003906 74.679688 145.234375 74.539062 144.738281 74.433594 C 143.417969 74.191406 142.152344 73.804688 141.3125 73.378906 C 140.902344 73.167969 140.265625 73.011719 139.875 73.011719 C 139.871094 73.011719 139.871094 73.011719 139.867188 73.011719 C 139.28125 73.015625 139.101562 73.105469 138.765625 73.570312 C 138.269531 74.28125 138.113281 75.546875 138.492188 76.097656 C 138.792969 76.558594 141.320312 77.632812 142.128906 77.632812 C 142.132812 77.632812 142.132812 77.632812 142.132812 77.632812 C 142.402344 77.632812 143.113281 77.878906 143.683594 78.160156 C 144.253906 78.460938 144.859375 78.691406 145.003906 78.691406 C 145.148438 78.691406 145.683594 78.796875 146.179688 78.933594 C 146.679688 79.074219 147.429688 79.285156 147.855469 79.390625 C 148.515625 79.566406 148.605469 79.621094 148.410156 79.851562 C 148.304688 79.996094 148.15625 80.058594 147.9375 80.058594 C 147.828125 80.058594 147.703125 80.042969 147.554688 80.015625 C 146.773438 79.886719 140.28125 79.6875 137.445312 79.6875 C 136.800781 79.6875 136.347656 79.699219 136.1875 79.722656 C 135.246094 79.851562 135.066406 80.136719 135.074219 81.527344 C 135.097656 83.183594 135.347656 83.378906 137.59375 83.546875 C 138.609375 83.632812 140.285156 83.765625 141.320312 83.851562 C 142.351562 83.953125 144.257812 84.019531 145.578125 84.03125 L 147.945312 84.019531 L 147.699219 84.414062 C 147.558594 84.628906 147.328125 84.859375 147.183594 84.933594 C 146.792969 85.113281 145.261719 85.492188 144.265625 85.640625 C 143.785156 85.710938 142.929688 85.929688 142.378906 86.144531 C 141.828125 86.34375 140.511719 86.597656 139.441406 86.726562 C 136.753906 87.023438 136.628906 87.09375 136.5625 88.449219 C 136.53125 89.339844 136.585938 89.589844 136.890625 89.941406 C 137.203125 90.296875 137.277344 90.367188 138.769531 90.367188 C 139.15625 90.367188 139.636719 90.363281 140.238281 90.355469 C 143.375 90.308594 146.117188 89.941406 147.21875 89.421875 C 147.667969 89.203125 148.238281 89.125 149.53125 89.125 C 149.621094 89.125 149.71875 89.125 149.820312 89.125 C 151.566406 89.136719 151.90625 89.1875 152.707031 89.59375 C 153.207031 89.839844 153.652344 90.105469 153.707031 90.195312 C 153.816406 90.375 153.429688 91.78125 153.09375 92.40625 C 152.988281 92.640625 152.648438 93.015625 152.367188 93.265625 C 151.550781 93.996094 151.289062 95.761719 151.671875 98.074219 C 152.007812 100.125 152.214844 100.546875 153.382812 100.546875 C 153.554688 100.546875 153.746094 100.539062 153.964844 100.523438 L 154.835938 100.46875 L 154.867188 99.21875 C 154.878906 97.9375 155.050781 96.796875 155.246094 96.636719 C 155.460938 96.457031 156.507812 95.046875 156.507812 94.921875 C 156.503906 94.621094 159.0625 92.703125 159.472656 92.703125 C 159.542969 92.703125 159.863281 92.488281 160.148438 92.234375 C 160.75 91.699219 161.175781 91.519531 162.351562 91.246094 C 162.796875 91.15625 163.507812 90.90625 163.917969 90.726562 C 164.34375 90.527344 164.773438 90.363281 164.894531 90.363281 C 165.019531 90.363281 165.410156 90.042969 165.75 89.632812 C 166.441406 88.828125 166.796875 88.738281 171.175781 88.132812 C 174.453125 87.691406 175.273438 87.632812 180.347656 87.59375 C 180.835938 87.59375 181.292969 87.59375 181.71875 87.59375 C 185.996094 87.59375 187.28125 87.703125 189.082031 88.167969 C 190.453125 88.535156 191.042969 88.640625 193.714844 89.109375 C 194.554688 89.25 195.875 89.472656 196.65625 89.613281 C 198.730469 90.003906 200.730469 90.171875 203.453125 90.171875 C 204.265625 90.171875 205.140625 90.15625 206.101562 90.128906 L 210.199219 90.003906 L 210.644531 90.414062 C 210.898438 90.644531 211.664062 91.28125 212.34375 91.847656 C 213.042969 92.414062 214.277344 93.566406 215.132812 94.417969 C 216.65625 95.945312 218.566406 97.648438 218.960938 97.804688 C 219.066406 97.859375 219.351562 98.070312 219.601562 98.285156 C 220.390625 99.011719 221.265625 99.683594 222.285156 100.339844 C 222.835938 100.691406 223.425781 101.152344 223.605469 101.347656 C 223.785156 101.542969 224.070312 101.703125 224.246094 101.703125 L 224.25 101.703125 C 224.429688 101.703125 224.605469 101.863281 224.679688 102.039062 C 224.730469 102.234375 224.894531 102.429688 225.035156 102.484375 C 225.535156 102.660156 225.34375 103.621094 224.617188 104.605469 C 224.246094 105.121094 223.785156 105.816406 223.609375 106.15625 C 223.429688 106.496094 223.042969 107.085938 222.738281 107.441406 C 222.457031 107.800781 222.011719 108.355469 221.765625 108.675781 C 221.144531 109.480469 220.71875 109.910156 219.902344 110.605469 C 217.984375 112.199219 216.335938 113.753906 215.289062 114.953125 C 215.003906 115.292969 214.0625 116.328125 213.210938 117.277344 C 212.34375 118.207031 211.652344 119.046875 211.652344 119.117188 C 211.652344 119.257812 210.960938 120.171875 210.234375 120.976562 C 209.984375 121.242188 209.402344 121.941406 208.941406 122.527344 C 208.480469 123.101562 207.238281 124.460938 206.191406 125.550781 C 205.144531 126.621094 203.847656 128.035156 203.316406 128.679688 C 202.785156 129.320312 202.269531 129.875 202.199219 129.894531 C 202.128906 129.929688 201.863281 130.359375 201.632812 130.839844 C 201.386719 131.320312 201.121094 131.714844 201.03125 131.714844 C 200.960938 131.714844 200.625 132.179688 200.324219 132.734375 C 199.332031 134.519531 198.960938 135.105469 198.480469 135.609375 C 198.214844 135.894531 198.003906 136.179688 198.003906 136.285156 C 198.003906 136.445312 196.605469 138.109375 195.664062 139.054688 C 195.398438 139.324219 195.132812 139.753906 195.0625 140.019531 C 195.007812 140.269531 194.8125 140.554688 194.636719 140.644531 C 194.457031 140.753906 194.261719 140.96875 194.191406 141.164062 C 194.140625 141.34375 193.875 141.539062 193.605469 141.59375 C 192.59375 141.8125 191.046875 143.402344 190.734375 144.5625 C 190.539062 145.292969 188.765625 147.257812 188.304688 147.261719 C 188.140625 147.261719 187.519531 147.546875 186.898438 147.890625 C 186.027344 148.390625 185.707031 148.675781 185.40625 149.300781 C 185.019531 150.121094 184.558594 150.535156 183.792969 150.714844 C 183.507812 150.789062 183.207031 151.074219 182.992188 151.503906 C 182.816406 151.859375 182.390625 152.414062 182.054688 152.699219 C 181.714844 153.003906 181.34375 153.34375 181.238281 153.449219 C 180.828125 153.863281 179.191406 154.597656 178.675781 154.601562 C 178.390625 154.601562 178.089844 154.675781 178.035156 154.78125 C 177.984375 154.871094 177.433594 155.230469 176.828125 155.585938 C 176.207031 155.929688 175.511719 156.410156 175.28125 156.644531 C 175.070312 156.894531 174.445312 157.21875 173.914062 157.378906 C 173.21875 157.597656 172.898438 157.792969 172.757812 158.113281 C 172.652344 158.347656 172.351562 158.597656 172.101562 158.667969 C 171.851562 158.722656 171.515625 158.867188 171.371094 158.992188 C 171.230469 159.136719 170.660156 159.421875 170.109375 159.675781 C 169.578125 159.910156 168.972656 160.304688 168.777344 160.554688 C 168.582031 160.804688 168.332031 161.035156 168.210938 161.070312 C 167.925781 161.179688 166.734375 162.199219 165.582031 163.378906 C 164.019531 164.953125 163.789062 165.222656 163.488281 165.828125 C 163.332031 166.148438 163.136719 166.417969 163.046875 166.417969 C 162.957031 166.417969 162.796875 166.667969 162.65625 166.988281 C 162.535156 167.292969 162.160156 167.933594 161.84375 168.398438 C 161.523438 168.882812 161.257812 169.308594 161.257812 169.382812 C 161.257812 169.433594 160.960938 170.09375 160.589844 170.84375 C 160.21875 171.609375 159.777344 172.734375 159.601562 173.375 C 159.425781 174.019531 159.214844 174.695312 159.144531 174.890625 C 158.859375 175.589844 158.441406 177.65625 158.445312 178.316406 C 158.445312 178.6875 158.324219 179.222656 158.183594 179.507812 C 158.039062 179.777344 157.917969 180.292969 157.917969 180.632812 C 157.921875 180.96875 157.832031 181.414062 157.710938 181.628906 C 157.480469 182.039062 157.234375 183.324219 157.152344 184.535156 C 157.066406 185.605469 156.90625 185.941406 156.425781 186.210938 C 156.160156 186.355469 155.984375 186.605469 155.984375 186.855469 C 155.984375 187.070312 155.789062 187.371094 155.542969 187.535156 C 155.3125 187.695312 155.046875 188.050781 154.976562 188.335938 C 154.816406 188.871094 153.914062 190.070312 153.078125 190.839844 C 152.796875 191.089844 152.101562 191.769531 151.554688 192.324219 C 150.984375 192.894531 150.488281 193.359375 150.433594 193.359375 C 150.328125 193.359375 146.636719 197.042969 145.503906 198.296875 C 145.148438 198.671875 144.757812 199.1875 144.632812 199.402344 C 144.527344 199.636719 144.171875 200.117188 143.871094 200.472656 C 143.550781 200.851562 143.234375 201.261719 143.128906 201.421875 C 143.039062 201.582031 142.507812 202.3125 141.957031 203.046875 C 140.769531 204.636719 140.117188 205.582031 139.40625 206.851562 C 139.125 207.351562 138.699219 208.027344 138.488281 208.3125 C 138.257812 208.617188 138.082031 208.957031 138.082031 209.046875 C 138.082031 209.152344 137.886719 209.457031 137.65625 209.742188 C 137.425781 210.011719 137.070312 210.601562 136.839844 211.027344 C 136.628906 211.472656 136.328125 211.957031 136.167969 212.097656 C 136.027344 212.242188 135.796875 212.636719 135.65625 212.957031 C 135.53125 213.277344 135.355469 213.546875 135.285156 213.546875 C 135.210938 213.546875 134.789062 214.082031 134.363281 214.742188 C 133.9375 215.421875 133.476562 216.0625 133.351562 216.1875 C 133.226562 216.3125 133.121094 216.582031 133.125 216.777344 C 133.125 216.957031 133.054688 217.117188 132.964844 217.117188 C 132.875 217.117188 132.503906 217.597656 132.148438 218.1875 C 131.796875 218.777344 131.371094 219.347656 131.191406 219.472656 C 131.03125 219.601562 130.714844 219.976562 130.5 220.277344 C 130.269531 220.601562 129.84375 220.992188 129.523438 221.136719 C 129.203125 221.300781 128.121094 222.210938 127.109375 223.195312 C 124.875 225.359375 124.359375 225.769531 122.847656 226.542969 C 122.207031 226.867188 121.550781 227.207031 121.40625 227.296875 C 120.414062 227.835938 118.402344 228.75 118.027344 228.859375 C 117.425781 229.003906 116.464844 229.453125 116.339844 229.632812 C 116.285156 229.722656 115.71875 230.0625 115.078125 230.386719 C 114.421875 230.726562 113.851562 231.085938 113.816406 231.210938 C 113.761719 231.335938 113.621094 231.441406 113.480469 231.441406 C 113.28125 231.441406 112.464844 231.839844 111.363281 232.484375 C 111.167969 232.589844 110.5625 232.894531 110.03125 233.148438 C 109.496094 233.417969 108.5 233.9375 107.808594 234.332031 C 107.132812 234.707031 106.226562 235.195312 105.835938 235.390625 C 105.425781 235.605469 104.609375 236.214844 104.023438 236.75 C 103.4375 237.289062 102.886719 237.71875 102.796875 237.71875 C 102.582031 237.71875 99.941406 240.542969 99.285156 241.472656 C 99 241.882812 98.453125 242.542969 98.097656 242.957031 C 96.605469 244.652344 96.183594 245.1875 96.183594 245.347656 C 96.183594 245.507812 95.082031 246.617188 92.367188 249.175781 C 91.78125 249.730469 90.363281 251.179688 89.226562 252.394531 C 88.09375 253.609375 86.671875 255.128906 86.070312 255.773438 C 85.464844 256.417969 84.757812 257.203125 84.507812 257.542969 C 83.925781 258.308594 82.683594 259.578125 81.582031 260.546875 C 81.121094 260.941406 80.746094 261.332031 80.746094 261.386719 C 80.75 261.6875 77.144531 265.035156 76.417969 265.429688 C 75.953125 265.679688 75.367188 265.984375 75.136719 266.109375 C 74.886719 266.253906 74.605469 266.539062 74.515625 266.753906 C 74.355469 267.09375 73.488281 267.738281 72.03125 268.582031 C 71.851562 268.6875 71.550781 268.902344 71.371094 269.0625 C 71.195312 269.242188 70.785156 269.371094 70.464844 269.371094 C 70.160156 269.371094 69.699219 269.5 69.46875 269.660156 C 69.144531 269.875 68.164062 269.984375 67.234375 269.984375 C 66.378906 269.984375 65.570312 269.890625 65.371094 269.695312 C 65.210938 269.515625 64.980469 269.394531 64.835938 269.394531 C 64.710938 269.394531 64.390625 269.289062 64.121094 269.148438 C 63.855469 269.003906 63.085938 268.847656 62.410156 268.78125 C 61.734375 268.710938 61.179688 268.589844 61.179688 268.5 C 61.179688 268.410156 60.75 267.929688 60.25 267.453125 C 59.484375 266.746094 59.179688 266.570312 58.6875 266.570312 C 58.683594 266.570312 58.679688 266.570312 58.679688 266.570312 C 58.320312 266.570312 57.875 266.679688 57.679688 266.820312 C 57.484375 266.964844 57.148438 267.109375 56.917969 267.144531 C 56.597656 267.183594 56.328125 267.484375 55.90625 268.359375 C 55.429688 269.289062 55.234375 270.019531 54.941406 272.015625 C 54.628906 274.136719 54.5625 275.453125 54.53125 280.796875 C 54.507812 284.25 54.382812 288.492188 54.246094 290.238281 C 54.113281 291.964844 53.945312 294.371094 53.894531 295.582031 C 53.847656 296.773438 53.726562 297.933594 53.65625 298.164062 C 53.566406 298.378906 53.410156 299.003906 53.324219 299.535156 C 52.257812 305.257812 52.367188 309.691406 53.628906 313.160156 C 53.878906 313.835938 54.148438 314.652344 54.242188 314.972656 C 54.402344 315.648438 54.886719 316.253906 56.085938 317.300781 C 56.859375 317.984375 56.96875 318.039062 57.953125 318.039062 C 58.011719 318.039062 58.070312 318.039062 58.136719 318.039062 C 59.863281 318.03125 61.019531 317.441406 61.550781 316.28125 C 61.972656 315.40625 62.394531 313.960938 62.605469 312.765625 C 62.65625 312.375 62.921875 311.609375 63.167969 311.074219 C 63.433594 310.539062 63.769531 309.699219 63.925781 309.21875 C 64.066406 308.738281 64.402344 308.113281 64.632812 307.828125 C 64.882812 307.539062 65.078125 307.148438 65.074219 306.953125 C 65.074219 306.773438 65.144531 306.613281 65.253906 306.613281 C 65.429688 306.613281 66.140625 305.648438 66.722656 304.578125 C 66.898438 304.253906 67.023438 303.683594 67.003906 303.222656 C 67 302.777344 67.140625 301.902344 67.316406 301.261719 C 67.597656 300.226562 67.683594 300.101562 68.148438 300.011719 C 68.574219 299.9375 68.699219 299.777344 68.890625 299.117188 C 69.03125 298.65625 69.367188 298.101562 69.757812 297.761719 C 70.097656 297.4375 70.378906 297.101562 70.378906 297.011719 C 70.378906 296.78125 71.566406 294.992188 71.992188 294.601562 C 72.167969 294.421875 72.328125 294.136719 72.328125 293.957031 C 72.328125 293.78125 72.449219 293.53125 72.59375 293.40625 C 72.734375 293.277344 72.859375 293.082031 72.859375 292.957031 C 72.855469 292.726562 73.746094 292.242188 74.367188 292.113281 C 74.566406 292.078125 74.742188 291.882812 74.777344 291.667969 C 74.8125 291.453125 75.023438 291.152344 75.273438 291.007812 C 75.753906 290.683594 75.855469 289.828125 75.480469 289.03125 C 75.300781 288.636719 75.335938 288.515625 75.722656 288.085938 C 75.972656 287.816406 76.308594 287.371094 76.488281 287.101562 C 76.664062 286.835938 77.054688 286.335938 77.355469 286.011719 C 77.65625 285.691406 78.046875 285.207031 78.222656 284.957031 C 78.402344 284.691406 78.703125 284.476562 78.882812 284.472656 C 79.078125 284.472656 79.238281 284.382812 79.238281 284.277344 C 79.234375 284.152344 79.394531 283.921875 79.609375 283.742188 C 79.820312 283.5625 80.121094 283.152344 80.300781 282.832031 C 80.476562 282.492188 80.777344 282.222656 80.992188 282.1875 C 81.207031 282.148438 81.488281 281.898438 81.628906 281.613281 C 81.773438 281.328125 82.039062 281.058594 82.214844 280.988281 C 82.589844 280.878906 84.203125 279.34375 84.203125 279.109375 C 84.203125 278.933594 85.214844 277.679688 86.152344 276.664062 C 86.542969 276.25 86.863281 275.824219 86.863281 275.714844 C 86.859375 275.394531 89.0625 273.265625 90.925781 271.78125 C 91.851562 271.046875 92.789062 270.261719 93.023438 270.027344 C 93.253906 269.8125 93.5 269.632812 93.554688 269.632812 C 93.625 269.632812 94.441406 269.042969 95.402344 268.308594 C 96.34375 267.574219 97.300781 266.875 97.535156 266.75 C 97.765625 266.625 98.085938 266.390625 98.226562 266.230469 C 98.367188 266.070312 98.777344 265.785156 99.113281 265.605469 C 99.453125 265.425781 100.019531 265.066406 100.359375 264.796875 C 100.695312 264.546875 101.28125 264.1875 101.65625 264.007812 C 102.011719 263.847656 102.3125 263.652344 102.3125 263.5625 C 102.3125 263.488281 102.613281 263.292969 102.988281 263.113281 C 103.34375 262.933594 103.964844 262.558594 104.355469 262.269531 C 105.527344 261.410156 106.914062 260.496094 107.058594 260.496094 C 107.144531 260.496094 107.589844 260.175781 108.070312 259.78125 C 108.53125 259.386719 109.027344 259.0625 109.152344 259.0625 C 109.296875 259.0625 109.5625 258.8125 109.773438 258.527344 C 109.988281 258.222656 110.253906 257.992188 110.398438 257.992188 C 110.519531 257.988281 111.054688 257.632812 111.585938 257.183594 C 112.121094 256.738281 112.636719 256.378906 112.742188 256.378906 C 112.832031 256.378906 113.097656 256.179688 113.328125 255.929688 C 113.558594 255.679688 113.84375 255.484375 113.949219 255.484375 C 114.074219 255.480469 114.535156 255.160156 114.980469 254.765625 C 115.421875 254.371094 115.851562 254.050781 115.9375 254.050781 C 116.027344 254.050781 116.382812 253.761719 116.71875 253.40625 C 117.039062 253.046875 117.625 252.617188 118 252.421875 C 118.355469 252.222656 118.65625 251.992188 118.65625 251.902344 C 118.65625 251.8125 118.992188 251.582031 119.421875 251.363281 C 120.398438 250.878906 120.949219 250.558594 121.199219 250.308594 C 121.304688 250.199219 121.5 250.109375 121.625 250.109375 C 121.75 250.109375 122.15625 249.929688 122.53125 249.695312 C 122.886719 249.464844 123.527344 249.140625 123.953125 248.976562 C 124.378906 248.796875 125.214844 248.347656 125.820312 247.957031 C 126.40625 247.5625 126.992188 247.238281 127.117188 247.238281 C 127.222656 247.238281 127.417969 247.128906 127.527344 247.003906 C 127.632812 246.863281 128.183594 246.609375 128.734375 246.429688 C 129.304688 246.230469 129.890625 245.980469 130.050781 245.855469 C 130.195312 245.730469 130.425781 245.621094 130.53125 245.621094 C 130.65625 245.621094 130.886719 245.546875 131.066406 245.441406 C 131.226562 245.351562 131.882812 245.027344 132.523438 244.722656 C 134.53125 243.753906 134.78125 243.589844 136.199219 242.269531 C 138.1875 240.425781 138.597656 240.085938 139.113281 239.796875 C 139.378906 239.65625 139.789062 239.296875 140.035156 238.992188 C 140.285156 238.707031 140.566406 238.457031 140.65625 238.457031 C 140.746094 238.457031 141.421875 237.902344 142.132812 237.203125 C 142.859375 236.523438 143.515625 235.953125 143.605469 235.953125 C 143.695312 235.953125 143.90625 235.824219 144.085938 235.664062 C 144.367188 235.414062 144.992188 235.054688 147.835938 233.546875 C 148.492188 233.1875 149.078125 232.796875 149.167969 232.671875 C 149.238281 232.546875 149.613281 232.292969 149.96875 232.132812 C 150.324219 231.953125 150.644531 231.757812 150.679688 231.683594 C 150.714844 231.613281 151.175781 231.273438 151.707031 230.933594 C 152.242188 230.59375 152.96875 230.109375 153.308594 229.820312 C 153.644531 229.554688 154.125 229.175781 154.371094 228.980469 C 154.621094 228.785156 155.296875 228.230469 155.882812 227.761719 C 157.25 226.671875 158.046875 225.957031 159.628906 224.398438 C 161.277344 222.773438 161.898438 222.21875 162.539062 221.84375 C 162.804688 221.664062 163.265625 221.304688 163.550781 221.035156 C 164.652344 219.945312 167.046875 217.941406 167.652344 217.601562 C 167.992188 217.402344 168.773438 216.777344 169.359375 216.222656 C 170.757812 214.898438 170.9375 214.71875 171.167969 214.433594 C 171.628906 213.898438 172.765625 212.914062 173.066406 212.804688 C 173.261719 212.734375 173.441406 212.519531 173.492188 212.324219 C 173.546875 212.109375 173.828125 211.824219 174.113281 211.679688 C 174.398438 211.535156 174.71875 211.214844 174.824219 210.980469 C 174.929688 210.734375 175.089844 210.535156 175.195312 210.535156 C 175.285156 210.535156 175.730469 210.160156 176.191406 209.675781 C 178.921875 206.90625 181.746094 204.328125 183.484375 203.023438 C 183.804688 202.773438 184.410156 202.269531 184.816406 201.894531 C 185.226562 201.539062 185.632812 201.234375 185.703125 201.234375 C 185.777344 201.230469 186.097656 201.015625 186.414062 200.730469 C 187.445312 199.871094 189.167969 198.726562 189.417969 198.722656 C 189.5625 198.722656 189.738281 198.632812 189.792969 198.527344 C 189.863281 198.417969 190.234375 198.117188 190.625 197.828125 C 191.003906 197.546875 191.226562 197.417969 191.492188 197.417969 C 191.699219 197.417969 191.929688 197.496094 192.28125 197.644531 C 193.332031 198.085938 195.558594 198.699219 196.078125 198.699219 L 196.082031 198.699219 C 196.40625 198.699219 197.511719 198.976562 198.542969 199.3125 C 199.558594 199.644531 200.699219 199.960938 201.074219 200.011719 C 201.429688 200.066406 202.5 200.347656 203.429688 200.628906 C 204.355469 200.910156 205.480469 201.242188 205.925781 201.347656 C 206.371094 201.46875 207.300781 201.734375 207.976562 201.960938 C 208.671875 202.171875 210.152344 202.433594 211.273438 202.535156 C 212.398438 202.640625 214.054688 202.847656 214.929688 202.984375 C 215.820312 203.140625 218.171875 203.453125 220.1875 203.675781 C 222.203125 203.917969 224.484375 204.230469 225.265625 204.367188 C 226.050781 204.527344 227.621094 204.75 228.742188 204.886719 C 231.648438 205.234375 232.378906 205.355469 232.578125 205.496094 C 232.683594 205.566406 233.164062 205.707031 233.648438 205.8125 C 234.144531 205.917969 234.769531 206.09375 235.054688 206.179688 L 235.554688 206.375 L 233.53125 208.394531 C 231.261719 210.683594 230.480469 211.542969 229.328125 213.078125 C 228.886719 213.667969 228.335938 214.292969 228.121094 214.472656 C 227.910156 214.652344 227.679688 214.957031 227.609375 215.167969 C 227.554688 215.382812 227.34375 215.6875 227.167969 215.828125 C 226.988281 215.992188 226.652344 216.527344 226.40625 217.027344 C 226.15625 217.507812 225.804688 218.0625 225.609375 218.242188 C 225.414062 218.417969 225.199219 218.792969 225.148438 219.0625 C 225.097656 219.328125 224.8125 219.917969 224.546875 220.347656 C 224.265625 220.792969 223.980469 221.34375 223.910156 221.578125 C 223.824219 221.808594 223.59375 222.292969 223.363281 222.648438 C 223.152344 223.003906 222.832031 223.59375 222.691406 223.96875 C 222.53125 224.324219 222.179688 224.914062 221.894531 225.273438 C 221.628906 225.648438 221.222656 226.253906 221.011719 226.648438 C 220.265625 228.019531 219.703125 228.96875 219.117188 229.789062 C 218.78125 230.253906 218.515625 230.699219 218.515625 230.789062 C 218.515625 230.878906 218.285156 231.269531 217.984375 231.664062 C 217.699219 232.039062 217.453125 232.429688 217.453125 232.519531 C 217.453125 232.609375 217.207031 233.003906 216.921875 233.414062 C 216.621094 233.824219 216 234.789062 215.523438 235.574219 C 215.0625 236.359375 214.480469 237.234375 214.210938 237.519531 C 213.964844 237.789062 213.699219 238.199219 213.628906 238.394531 C 213.558594 238.609375 213.203125 239.199219 212.832031 239.699219 C 212.441406 240.199219 212.140625 240.734375 212.140625 240.894531 C 212.144531 241.074219 212.070312 241.199219 211.964844 241.199219 C 211.875 241.199219 211.59375 241.554688 211.34375 241.984375 C 211.097656 242.429688 210.546875 243.089844 210.140625 243.46875 C 209.730469 243.84375 209.109375 244.574219 208.773438 245.074219 C 208.4375 245.59375 208.066406 246.023438 207.941406 246.023438 C 207.601562 246.023438 207.175781 246.558594 207.179688 246.988281 C 207.179688 247.21875 206.894531 247.699219 206.558594 248.058594 C 206.222656 248.433594 205.9375 248.878906 205.941406 249.074219 C 205.941406 249.253906 205.871094 249.414062 205.796875 249.414062 C 205.710938 249.414062 205.425781 249.738281 205.125 250.148438 C 204.839844 250.539062 204.433594 251.078125 204.21875 251.328125 C 203.988281 251.578125 203.8125 251.917969 203.8125 252.078125 C 203.816406 252.511719 201.777344 254.65625 201.398438 254.65625 C 201.375 254.65625 201.359375 254.648438 201.347656 254.632812 C 201.21875 254.421875 200.691406 254.292969 200.214844 254.292969 C 199.960938 254.292969 199.722656 254.328125 199.566406 254.410156 C 199.371094 254.535156 198.910156 255.210938 198.574219 255.925781 C 197.972656 257.230469 196.859375 258.996094 196.46875 259.335938 C 196.042969 259.675781 194.734375 262.460938 194.628906 263.207031 C 194.5625 263.742188 194.382812 264.117188 193.976562 264.511719 C 193.65625 264.796875 193.355469 265.261719 193.304688 265.527344 C 193.179688 265.972656 191.777344 267.101562 191.296875 267.105469 C 191.011719 267.105469 190.515625 267.890625 190.519531 268.335938 C 190.519531 269.03125 191.203125 270.238281 191.988281 270.929688 C 193.417969 272.171875 193.8125 272.472656 194.277344 272.667969 C 194.527344 272.753906 194.972656 272.949219 195.292969 273.070312 C 195.597656 273.214844 195.933594 273.316406 196.058594 273.316406 L 196.0625 273.316406 C 196.167969 273.316406 196.523438 273.511719 196.847656 273.761719 C 197.167969 274.007812 197.488281 274.203125 197.542969 274.203125 C 197.613281 274.203125 198.078125 274.398438 198.59375 274.644531 C 199.09375 274.875 199.792969 275.121094 200.148438 275.171875 C 200.734375 275.277344 202.699219 275.964844 203.375 276.316406 C 203.539062 276.386719 204 276.511719 204.410156 276.578125 C 204.820312 276.648438 205.5 276.859375 205.910156 277.054688 C 206.800781 277.476562 208.511719 278.074219 208.835938 278.074219 C 208.960938 278.074219 209.585938 278.320312 210.210938 278.605469 C 210.851562 278.902344 211.492188 279.132812 211.636719 279.132812 C 211.78125 279.132812 212.40625 279.414062 213.011719 279.75 C 213.617188 280.085938 214.332031 280.421875 214.597656 280.492188 C 214.847656 280.542969 215.296875 280.757812 215.5625 280.953125 C 215.847656 281.144531 216.4375 281.410156 216.882812 281.535156 C 217.328125 281.675781 218.0625 282.011719 218.527344 282.273438 C 218.972656 282.558594 219.597656 282.839844 219.882812 282.910156 C 220.1875 282.980469 220.808594 283.226562 221.273438 283.476562 C 221.773438 283.722656 222.503906 283.933594 222.96875 283.949219 C 223.433594 283.964844 223.84375 284.035156 223.914062 284.105469 C 224.144531 284.425781 226.035156 284.613281 229.742188 284.707031 C 230.695312 284.726562 231.445312 284.734375 232.027344 284.734375 C 233.222656 284.734375 233.695312 284.691406 233.695312 284.582031 C 233.695312 284.476562 234.015625 284.386719 234.515625 284.382812 C 236.3125 284.375 239.464844 283.332031 240.066406 282.542969 C 240.191406 282.382812 240.382812 282.132812 240.507812 282.007812 C 241.238281 281.277344 241.359375 280.847656 241.246094 279.511719 C 241.117188 278.25 240.738281 277.058594 240.453125 277.058594 C 240.382812 277.058594 240.222656 276.878906 240.09375 276.648438 C 239.738281 275.972656 238.753906 275.570312 236.6875 275.203125 C 235.957031 275.0625 234.671875 274.835938 233.835938 274.699219 C 232.996094 274.542969 232.050781 274.382812 231.75 274.332031 C 231.320312 274.261719 231.160156 274.140625 231.160156 273.890625 C 231.15625 273.695312 230.941406 273.445312 230.675781 273.320312 C 230.40625 273.199219 230.15625 272.933594 230.121094 272.734375 C 230.011719 272.167969 229.761719 271.972656 228.960938 271.851562 C 228.550781 271.78125 227.78125 271.515625 227.265625 271.269531 C 226.496094 270.898438 226.246094 270.667969 225.960938 270.046875 C 225.761719 269.621094 225.492188 269.28125 225.351562 269.28125 L 225.347656 269.28125 C 225.207031 269.28125 225.082031 269.175781 225.082031 269.050781 C 225.082031 268.910156 224.757812 268.554688 224.367188 268.234375 C 223.972656 267.933594 223.527344 267.4375 223.382812 267.152344 C 223.21875 266.867188 222.898438 266.566406 222.667969 266.515625 C 222.382812 266.445312 222.21875 266.285156 222.21875 266.070312 C 222.21875 265.875 222.09375 265.679688 221.949219 265.628906 C 221.808594 265.558594 221.683594 265.398438 221.683594 265.253906 C 221.679688 265.113281 221.289062 264.613281 220.785156 264.136719 C 219.839844 263.230469 219.660156 262.714844 220.246094 262.714844 C 220.425781 262.714844 220.671875 262.550781 220.78125 262.335938 C 221.007812 261.925781 220.882812 261.109375 220.597656 261.109375 C 220.488281 261.109375 220.417969 260.84375 220.414062 260.503906 C 220.414062 260.183594 220.253906 259.703125 220.054688 259.457031 C 219.644531 258.957031 219.695312 258.28125 220.207031 257.105469 C 220.964844 255.410156 221.105469 255.035156 221.105469 254.804688 C 221.105469 254.660156 221.230469 254.515625 221.371094 254.445312 C 221.53125 254.390625 221.636719 254.125 221.636719 253.820312 C 221.636719 253.535156 221.6875 253.269531 221.777344 253.234375 C 222.078125 253.105469 222.875 251.839844 222.875 251.5 C 222.871094 251.289062 222.960938 251.125 223.050781 251.125 C 223.15625 251.125 223.226562 250.929688 223.226562 250.699219 C 223.226562 250.484375 223.421875 250.074219 223.667969 249.804688 C 223.898438 249.554688 224.589844 248.679688 225.191406 247.859375 C 225.796875 247.054688 226.523438 246.144531 226.789062 245.859375 C 227.835938 244.714844 228.542969 243.839844 228.542969 243.695312 C 228.5625 243.605469 228.808594 243.375 229.128906 243.175781 C 229.449219 242.980469 229.769531 242.65625 229.855469 242.445312 C 229.945312 242.246094 230.246094 241.945312 230.53125 241.78125 C 230.796875 241.621094 231.027344 241.386719 231.027344 241.265625 C 231.046875 241.140625 231.363281 240.816406 231.738281 240.546875 C 232.128906 240.28125 232.449219 239.921875 232.445312 239.78125 C 232.445312 239.636719 232.554688 239.511719 232.675781 239.511719 C 232.820312 239.511719 233.210938 239.207031 233.566406 238.832031 C 233.902344 238.472656 234.558594 237.882812 235.019531 237.542969 C 235.464844 237.203125 236.105469 236.667969 236.40625 236.363281 C 236.726562 236.058594 237.648438 235.199219 238.484375 234.484375 C 241.128906 232.160156 250.210938 222.914062 252.054688 220.664062 C 253.296875 219.144531 253.8125 218.554688 254.324219 218.070312 C 256.386719 216.15625 261.546875 210.597656 261.546875 210.277344 C 261.542969 210.082031 262.925781 208.046875 263.476562 207.421875 C 264.238281 206.582031 265.40625 204.457031 265.597656 203.582031 C 265.703125 203.136719 265.785156 201.746094 265.78125 200.5 C 265.773438 198.433594 265.738281 198.152344 265.324219 197.386719 C 265.089844 196.925781 264.695312 196.355469 264.429688 196.125 C 264.175781 195.894531 263.980469 195.648438 263.980469 195.558594 C 263.980469 195.46875 263.800781 195.363281 263.570312 195.308594 C 263.335938 195.238281 262.855469 194.886719 262.480469 194.496094 C 262.050781 194.070312 261.03125 193.433594 259.800781 192.832031 C 258.710938 192.300781 257.695312 191.789062 257.550781 191.699219 C 257.410156 191.613281 256.570312 191.207031 255.695312 190.78125 C 254.800781 190.359375 253.605469 189.6875 253 189.296875 C 252.390625 188.90625 251.570312 188.394531 251.160156 188.148438 C 250.75 187.898438 249.875 187.367188 249.210938 186.945312 C 248.550781 186.535156 247.855469 186.148438 247.695312 186.09375 C 247.515625 186.042969 247.375 185.917969 247.371094 185.828125 C 247.371094 185.742188 247.285156 185.667969 247.175781 185.667969 C 247.070312 185.667969 246.730469 185.476562 246.410156 185.226562 C 246.085938 184.980469 245.75 184.785156 245.640625 184.785156 C 245.550781 184.785156 245.320312 184.625 245.160156 184.449219 C 244.980469 184.253906 244.585938 184.007812 244.28125 183.882812 C 243.960938 183.757812 243.355469 183.40625 242.90625 183.085938 C 242.460938 182.785156 241.90625 182.46875 241.660156 182.398438 C 241.410156 182.328125 241.050781 182.113281 240.855469 181.9375 C 240.65625 181.761719 240.140625 181.496094 239.710938 181.335938 C 239.300781 181.195312 238.730469 180.894531 238.445312 180.664062 C 238.175781 180.433594 237.675781 180.152344 237.355469 180.027344 C 237.015625 179.90625 236.625 179.726562 236.480469 179.640625 C 236.339844 179.570312 235.925781 179.355469 235.589844 179.199219 C 235.25 179.039062 234.195312 178.5625 233.269531 178.121094 C 232.339844 177.679688 231.339844 177.203125 231.035156 177.0625 C 230.75 176.902344 230.109375 176.585938 229.609375 176.335938 C 229.125 176.105469 228.5 175.71875 228.234375 175.46875 C 227.964844 175.222656 227.589844 174.921875 227.410156 174.8125 C 227.214844 174.707031 226.679688 174.355469 226.214844 174.035156 C 225.769531 173.734375 225.285156 173.46875 225.144531 173.46875 L 225.140625 173.46875 C 225 173.46875 224.859375 173.398438 224.804688 173.328125 C 224.75 173.238281 224.125 172.957031 223.410156 172.691406 C 222.699219 172.429688 221.984375 172.148438 221.84375 172.058594 C 221.054688 171.582031 220.003906 171.210938 218.988281 171.035156 C 218.363281 170.914062 217.773438 170.757812 217.667969 170.648438 C 217.578125 170.5625 217.242188 170.476562 216.941406 170.476562 C 216.941406 170.476562 216.9375 170.476562 216.9375 170.476562 C 216.933594 170.476562 216.933594 170.476562 216.929688 170.476562 C 216.59375 170.476562 216.238281 170.335938 216.042969 170.121094 C 215.847656 169.910156 215.492188 169.769531 215.121094 169.769531 C 215.121094 169.769531 215.117188 169.769531 215.117188 169.769531 C 215.113281 169.769531 215.113281 169.769531 215.109375 169.769531 C 214.792969 169.769531 214.527344 169.683594 214.527344 169.578125 C 214.527344 169.328125 215.46875 168.539062 216.480469 167.949219 C 216.925781 167.695312 217.492188 167.265625 217.742188 167.015625 C 217.972656 166.765625 218.257812 166.550781 218.363281 166.550781 C 218.453125 166.550781 218.773438 166.300781 219.054688 166.015625 C 219.339844 165.726562 219.660156 165.476562 219.765625 165.476562 C 219.875 165.476562 220.335938 165.171875 220.796875 164.796875 C 222.148438 163.722656 223.230469 162.953125 223.746094 162.738281 C 223.996094 162.609375 224.367188 162.359375 224.5625 162.164062 C 224.757812 161.964844 225.238281 161.644531 225.628906 161.445312 C 226.003906 161.25 226.535156 160.910156 226.785156 160.710938 C 227.03125 160.496094 227.425781 160.265625 227.671875 160.191406 C 227.90625 160.121094 228.207031 159.957031 228.332031 159.832031 C 228.453125 159.707031 228.933594 159.457031 229.398438 159.277344 C 229.878906 159.097656 230.660156 158.703125 231.140625 158.398438 C 231.636719 158.109375 232.242188 157.734375 232.492188 157.589844 C 233.449219 157.035156 234.570312 156.105469 234.800781 155.691406 C 234.921875 155.460938 235.117188 155.265625 235.226562 155.265625 C 235.332031 155.261719 235.722656 154.941406 236.078125 154.546875 C 236.414062 154.15625 236.769531 153.832031 236.824219 153.832031 C 236.894531 153.832031 237.25 153.597656 237.605469 153.3125 C 237.976562 153.007812 238.492188 152.6875 238.792969 152.542969 C 239.078125 152.417969 239.558594 152.148438 239.84375 151.933594 C 240.144531 151.71875 240.804688 151.359375 241.320312 151.144531 C 241.816406 150.925781 242.242188 150.675781 242.242188 150.605469 C 242.242188 150.535156 242.457031 150.410156 242.722656 150.335938 C 242.988281 150.28125 243.808594 149.941406 244.539062 149.582031 C 245.285156 149.238281 246.40625 148.789062 247.027344 148.589844 C 247.667969 148.394531 248.34375 148.125 248.539062 147.996094 C 248.753906 147.871094 249.234375 147.675781 249.625 147.546875 C 250.015625 147.421875 250.585938 147.171875 250.867188 146.992188 C 251.171875 146.8125 251.863281 146.417969 252.414062 146.09375 C 252.964844 145.789062 253.464844 145.429688 253.515625 145.289062 C 253.570312 145.144531 253.730469 145.039062 253.871094 145.039062 C 254.015625 145.039062 254.476562 144.714844 254.882812 144.320312 C 255.308594 143.929688 255.71875 143.605469 255.789062 143.605469 C 255.933594 143.605469 259.109375 140.992188 259.304688 140.707031 C 259.386719 140.601562 259.589844 140.554688 259.867188 140.554688 C 260.761719 140.554688 262.433594 141.042969 263.265625 141.652344 C 263.980469 142.183594 265.75 143.902344 266.089844 144.417969 C 266.347656 144.804688 267.0625 145.109375 267.546875 145.109375 C 267.707031 145.109375 267.84375 145.074219 267.929688 145 C 268.035156 144.914062 268.191406 144.875 268.375 144.875 C 268.796875 144.875 269.351562 145.089844 269.675781 145.4375 C 269.890625 145.667969 270.191406 145.863281 270.316406 145.863281 L 270.320312 145.863281 C 270.445312 145.863281 271.085938 146.179688 271.730469 146.570312 C 272.371094 146.957031 272.941406 147.277344 272.960938 147.277344 C 272.996094 147.277344 273.710938 147.59375 274.550781 147.980469 C 275.386719 148.371094 276.121094 148.6875 276.207031 148.6875 L 276.210938 148.6875 C 276.28125 148.6875 276.726562 148.882812 277.191406 149.128906 C 278.15625 149.640625 281.707031 150.925781 282.773438 151.15625 C 283.507812 151.3125 284.828125 151.734375 285.449219 152.035156 C 285.648438 152.121094 286.414062 152.351562 287.144531 152.542969 C 288.464844 152.878906 290.285156 153.457031 291.335938 153.898438 C 292.40625 154.339844 293.316406 154.65625 293.925781 154.8125 C 294.261719 154.917969 295.351562 155.21875 296.332031 155.515625 C 298.484375 156.144531 299.636719 156.414062 300.484375 156.414062 C 300.941406 156.414062 301.308594 156.335938 301.699219 156.191406 C 302.285156 155.957031 303.722656 154.828125 303.722656 154.578125 C 303.722656 154.367188 306.167969 151.078125 306.945312 150.257812 C 307.320312 149.863281 307.621094 149.433594 307.621094 149.292969 C 307.621094 149.148438 307.847656 148.773438 308.117188 148.46875 C 308.699219 147.84375 310.097656 145.667969 310.097656 145.398438 C 310.097656 145.308594 310.257812 145.078125 310.46875 144.882812 C 310.683594 144.703125 311.003906 144.238281 311.195312 143.84375 C 311.390625 143.472656 311.78125 142.828125 312.0625 142.433594 C 312.347656 142.042969 312.578125 141.632812 312.578125 141.542969 C 312.578125 141.4375 312.71875 141.1875 312.914062 140.988281 C 313.089844 140.773438 313.515625 140.097656 313.851562 139.453125 C 314.1875 138.8125 314.59375 138.042969 314.753906 137.757812 C 314.914062 137.453125 315.160156 136.9375 315.320312 136.597656 C 315.476562 136.257812 315.796875 135.617188 316.042969 135.171875 C 316.273438 134.726562 316.46875 134.226562 316.464844 134.03125 C 316.464844 133.851562 316.78125 133.066406 317.171875 132.28125 C 317.558594 131.496094 317.878906 130.695312 317.878906 130.515625 C 317.875 130.320312 318.070312 129.765625 318.316406 129.25 C 318.566406 128.75 318.757812 128.230469 318.757812 128.089844 C 318.757812 127.785156 319.25 126.253906 319.53125 125.71875 C 319.761719 125.273438 319.957031 124.59375 320.691406 121.796875 C 320.921875 120.957031 321.167969 120.207031 321.238281 120.101562 C 321.328125 120.011719 321.398438 119.726562 321.394531 119.460938 C 321.394531 119.191406 321.695312 118.515625 322.066406 117.941406 C 322.703125 116.960938 323.519531 115.640625 323.996094 114.765625 C 324.121094 114.570312 324.386719 114.246094 324.597656 114.066406 C 325.113281 113.65625 326.53125 111.621094 326.53125 111.316406 C 326.527344 111.175781 326.847656 110.460938 327.234375 109.730469 C 327.625 108.980469 327.941406 108.195312 327.941406 107.964844 C 327.941406 107.75 328.132812 107.109375 328.382812 106.539062 C 328.859375 105.484375 329.257812 103.097656 329.09375 102.457031 C 329.039062 102.207031 329.25 101.546875 329.695312 100.671875 C 330.082031 99.886719 330.398438 99.101562 330.398438 98.925781 C 330.398438 98.730469 330.59375 98.160156 330.820312 97.660156 C 331.5625 96 331.875 93.859375 331.445312 93.097656 C 331.289062 92.804688 330.730469 92.613281 330.207031 92.613281 C 329.996094 92.613281 329.792969 92.644531 329.625 92.710938 C 329.144531 92.894531 328.773438 93.660156 328.335938 95.441406 C 328.179688 96.101562 327.933594 96.726562 327.789062 96.851562 C 327.648438 96.960938 327.542969 97.136719 327.542969 97.226562 C 327.542969 97.316406 327.417969 97.511719 327.277344 97.65625 C 327.132812 97.816406 327.011719 98.101562 327.011719 98.316406 C 326.996094 98.527344 326.890625 98.902344 326.765625 99.136719 L 326.535156 99.5625 L 326.300781 99.15625 C 326.070312 98.730469 326.121094 98.480469 326.773438 96.410156 C 326.929688 95.910156 327.070312 94.929688 327.101562 94.238281 C 327.117188 93.523438 327.1875 92.847656 327.257812 92.738281 C 327.433594 92.4375 327.707031 89.300781 327.578125 88.765625 C 327.46875 88.234375 326.722656 87.757812 326.011719 87.757812 C 326.011719 87.757812 326.007812 87.757812 326.007812 87.757812 C 325.992188 87.757812 325.980469 87.757812 325.96875 87.757812 C 325.578125 87.757812 325.585938 87.726562 325.828125 87.261719 C 326.179688 86.566406 326.125 86.011719 325.625 85.535156 C 325.339844 85.238281 324.804688 85.082031 324.289062 85.082031 C 323.960938 85.082031 323.644531 85.144531 323.394531 85.277344 C 322.953125 85.507812 322.175781 87.238281 321.878906 88.664062 C 321.753906 89.308594 321.4375 90.214844 321.191406 90.679688 C 320.945312 91.164062 320.730469 91.75 320.734375 92.019531 C 320.714844 92.253906 320.707031 92.371094 320.695312 92.371094 C 320.679688 92.371094 320.664062 92.261719 320.625 92.054688 C 320.570312 91.824219 320.660156 91.179688 320.800781 90.628906 C 321.796875 86.96875 321.636719 86 320.066406 86 C 320.058594 86 320.054688 86 320.050781 86 C 318.589844 86.007812 318.269531 86.398438 317.710938 88.859375 C 317.585938 89.394531 317.339844 90.304688 317.164062 90.894531 C 316.972656 91.464844 316.832031 92.460938 316.835938 93.121094 C 316.820312 93.851562 316.699219 94.652344 316.46875 95.277344 C 316.257812 95.8125 315.925781 96.757812 315.714844 97.363281 C 315.484375 97.96875 315.078125 98.738281 314.792969 99.078125 C 314.507812 99.417969 314.207031 99.808594 314.101562 99.988281 C 314.023438 100.117188 313.972656 100.183594 313.871094 100.183594 C 313.765625 100.183594 313.601562 100.109375 313.300781 99.957031 C 312.496094 99.511719 311.335938 98.503906 311.332031 98.21875 C 311.332031 97.898438 310.242188 97.152344 309.316406 96.835938 C 308.761719 96.648438 307.902344 96.5625 306.707031 96.5625 C 306.675781 96.5625 306.640625 96.5625 306.605469 96.5625 C 304.46875 96.570312 304.148438 96.734375 304.242188 97.785156 C 304.296875 98.390625 304.351562 98.441406 305.191406 98.707031 C 306.222656 99.003906 306.867188 99.445312 308.191406 100.777344 C 309.746094 102.320312 310.035156 102.710938 310.375 103.796875 C 310.558594 104.367188 310.898438 105.113281 311.132812 105.449219 C 311.347656 105.785156 311.542969 106.230469 311.546875 106.425781 C 311.546875 107.175781 312.25 109.433594 312.644531 109.964844 C 312.984375 110.410156 313.039062 110.714844 313.027344 111.746094 C 313.03125 112.421875 312.925781 113.0625 312.820312 113.171875 C 312.730469 113.261719 312.640625 113.457031 312.644531 113.601562 C 312.644531 113.742188 312.539062 114.097656 312.398438 114.402344 C 311.957031 115.4375 311.585938 116.488281 311.585938 116.757812 C 311.585938 116.917969 311.394531 117.328125 311.179688 117.703125 C 310.949219 118.058594 310.703125 118.59375 310.632812 118.898438 C 310.5625 119.183594 310.386719 119.558594 310.261719 119.699219 C 309.996094 120.003906 308.96875 121.894531 308.175781 123.539062 C 307.894531 124.109375 307.484375 124.839844 307.253906 125.144531 C 307.042969 125.429688 306.722656 125.964844 306.566406 126.304688 C 306.40625 126.644531 306.105469 127.125 305.875 127.375 C 305.664062 127.625 305.398438 128.019531 305.289062 128.269531 C 305.183594 128.519531 303.710938 130.179688 302.046875 131.96875 C 300.378906 133.753906 299.011719 135.292969 299.011719 135.363281 C 299.011719 135.433594 298.710938 135.792969 298.355469 136.148438 C 297.984375 136.507812 297.609375 136.902344 297.503906 137.007812 C 296.457031 138.207031 295.375 138.816406 294.269531 138.820312 C 294.257812 138.820312 294.246094 138.820312 294.234375 138.820312 C 293.496094 138.820312 293.207031 138.726562 292.539062 138.203125 C 292.09375 137.867188 291.429688 137.441406 291.039062 137.25 C 290.664062 137.054688 290.074219 136.59375 289.734375 136.21875 C 288.875 135.296875 287.875 134.535156 286.714844 133.917969 C 286.179688 133.632812 285.570312 133.316406 285.375 133.210938 C 284.214844 132.574219 282.449219 131.761719 281.949219 131.675781 C 281.554688 131.585938 281.359375 131.429688 281.324219 131.179688 C 281.285156 130.964844 281.144531 130.753906 281 130.679688 C 280.859375 130.609375 280.484375 130.417969 280.160156 130.257812 C 279.859375 130.097656 279.46875 129.976562 279.269531 129.976562 L 279.265625 129.976562 C 279.089844 129.976562 278.839844 129.90625 278.699219 129.816406 C 278.304688 129.570312 279.101562 128.550781 279.691406 128.550781 C 280.6875 128.546875 281.558594 128.132812 281.84375 127.527344 C 282 127.1875 282.25 126.9375 282.429688 126.9375 C 282.605469 126.933594 282.855469 126.828125 282.980469 126.703125 C 283.105469 126.578125 283.351562 126.414062 283.511719 126.34375 C 283.671875 126.289062 283.992188 125.824219 284.222656 125.324219 C 284.523438 124.664062 284.621094 124.480469 284.882812 124.480469 C 284.957031 124.480469 285.050781 124.496094 285.160156 124.519531 C 285.980469 124.667969 286.609375 124.75 287.085938 124.75 C 288.066406 124.75 288.425781 124.414062 288.542969 123.632812 C 288.613281 123.242188 288.859375 122.046875 289.085938 120.996094 C 289.347656 119.820312 289.503906 118.519531 289.5 117.59375 C 289.492188 115.9375 289.472656 115.953125 290.96875 115.503906 C 291.699219 115.269531 291.980469 114.824219 291.976562 113.84375 C 291.996094 113.523438 292.101562 113.078125 292.242188 112.828125 C 292.382812 112.578125 292.488281 112.203125 292.503906 111.972656 C 292.503906 111.757812 292.59375 111.578125 292.679688 111.578125 C 292.789062 111.578125 292.859375 111.472656 292.859375 111.347656 C 292.855469 110.902344 293.191406 109.917969 293.324219 109.917969 C 293.335938 109.917969 293.34375 109.925781 293.351562 109.9375 C 293.421875 110.042969 294.296875 110.148438 295.3125 110.195312 C 296.328125 110.226562 297.253906 110.367188 297.363281 110.472656 C 297.480469 110.589844 297.738281 110.640625 298.042969 110.640625 C 298.839844 110.640625 299.980469 110.300781 299.980469 109.929688 C 299.976562 109.75 300.066406 109.589844 300.15625 109.589844 C 300.261719 109.589844 300.332031 109.410156 300.332031 109.195312 C 300.332031 108.984375 300.472656 108.664062 300.632812 108.484375 C 300.988281 108.089844 301.175781 106.128906 300.890625 105.792969 C 300.765625 105.652344 300.746094 105.332031 300.851562 104.867188 C 300.9375 104.476562 301.023438 103.871094 301.023438 103.53125 C 301.019531 102.925781 300.222656 99.953125 299.917969 99.4375 C 299.847656 99.296875 299.632812 98.90625 299.46875 98.585938 C 299.308594 98.285156 299.058594 98.019531 298.933594 98.019531 C 298.789062 98.019531 298.539062 97.734375 298.378906 97.398438 C 298.089844 96.792969 296.464844 95.625 295.054688 94.988281 C 294.714844 94.828125 294.5 94.5625 294.355469 94.046875 C 294.25 93.636719 293.980469 93.070312 293.765625 92.785156 C 293.550781 92.484375 293.332031 92.109375 293.261719 91.933594 C 293.191406 91.738281 292.960938 91.632812 292.558594 91.632812 C 292.554688 91.632812 292.550781 91.632812 292.546875 91.632812 C 292.542969 91.632812 292.539062 91.632812 292.53125 91.632812 C 291.648438 91.632812 290.886719 91.316406 290.675781 90.855469 C 290.480469 90.417969 289.851562 90.222656 288.632812 90.222656 C 288.617188 90.222656 288.601562 90.222656 288.585938 90.222656 C 288.582031 90.222656 288.578125 90.222656 288.574219 90.222656 C 288.082031 90.222656 287.746094 90.117188 287.535156 89.890625 C 287.375 89.710938 286.925781 89.429688 286.535156 89.253906 C 286.089844 89.058594 285.820312 88.808594 285.820312 88.613281 C 285.816406 88.027344 285.085938 87.511719 283.085938 86.703125 C 282.820312 86.597656 282.242188 86.511719 281.816406 86.511719 C 281.8125 86.511719 281.808594 86.511719 281.800781 86.511719 C 281.800781 86.511719 281.796875 86.511719 281.792969 86.511719 C 281.359375 86.511719 280.191406 86.390625 279.21875 86.238281 C 278.367188 86.101562 277.558594 86.039062 276.773438 86.039062 C 276.4375 86.039062 276.109375 86.050781 275.777344 86.074219 C 271.023438 86.394531 270.847656 86.414062 270.847656 86.644531 C 270.847656 86.804688 270.492188 86.929688 269.832031 87.003906 C 269.261719 87.058594 268.515625 87.222656 268.175781 87.367188 C 267.839844 87.511719 267.234375 87.710938 266.84375 87.835938 C 265.738281 88.179688 264.671875 88.753906 263.980469 89.398438 C 263.644531 89.71875 263.039062 90.128906 262.648438 90.328125 C 262.273438 90.527344 261.847656 90.917969 261.707031 91.1875 C 261.371094 91.828125 260.449219 92.847656 259.953125 93.097656 C 259.757812 93.1875 259.453125 93.492188 259.3125 93.742188 C 259.152344 93.992188 258.800781 94.5625 258.5 94.992188 C 258.074219 95.636719 257.96875 96.011719 257.917969 97.0625 L 257.851562 98.34375 L 257.125 98.703125 C 256.765625 98.882812 256.570312 98.96875 256.445312 98.96875 C 256.34375 98.96875 256.289062 98.914062 256.234375 98.8125 C 256.160156 98.671875 255.859375 98.421875 255.574219 98.28125 C 255.269531 98.121094 254.929688 97.75 254.785156 97.429688 C 254.460938 96.699219 252.261719 94.429688 251.511719 94.042969 C 251.191406 93.882812 250.921875 93.6875 250.921875 93.597656 C 250.921875 93.507812 250.617188 93.296875 250.261719 93.136719 C 249.886719 92.960938 249.546875 92.765625 249.492188 92.695312 C 249.3125 92.429688 247.53125 91.636719 247.121094 91.636719 L 247.117188 91.636719 C 246.886719 91.636719 246.367188 91.425781 245.996094 91.144531 C 245.03125 90.488281 244.53125 90.277344 243.621094 90.136719 C 243.121094 90.085938 242.65625 89.875 242.390625 89.609375 C 242.121094 89.34375 241.75 89.167969 241.445312 89.167969 C 241.441406 89.167969 241.441406 89.167969 241.4375 89.167969 C 241.121094 89.167969 240.871094 89.042969 240.746094 88.8125 C 240.640625 88.617188 240.140625 88.246094 239.621094 88 C 239.105469 87.734375 238.460938 87.34375 238.15625 87.132812 C 237.871094 86.917969 237.265625 86.636719 236.820312 86.496094 C 236.371094 86.375 235.625 85.984375 235.125 85.664062 C 234.035156 84.921875 233.480469 84.710938 231.199219 84.132812 C 230.214844 83.867188 229.289062 83.570312 229.144531 83.445312 C 229.003906 83.320312 228.394531 83.003906 227.808594 82.722656 C 227.21875 82.457031 226.609375 82.136719 226.46875 82.015625 C 226.324219 81.90625 225.84375 81.660156 225.414062 81.5 C 224.96875 81.324219 224.398438 81.042969 224.128906 80.847656 C 223.863281 80.671875 223.523438 80.511719 223.398438 80.511719 C 223.144531 80.511719 221.542969 79.789062 220.363281 79.171875 C 220.113281 79.03125 219.777344 78.925781 219.632812 78.925781 C 219.488281 78.925781 218.8125 78.605469 218.152344 78.21875 C 217.472656 77.828125 216.796875 77.511719 216.617188 77.511719 L 216.613281 77.511719 C 216.453125 77.511719 216.242188 77.40625 216.167969 77.28125 C 216.097656 77.140625 215.578125 76.75 215.042969 76.398438 C 214.507812 76.042969 213.863281 75.601562 213.632812 75.441406 C 213.292969 75.191406 212.6875 75.105469 211.046875 75.023438 C 209.855469 74.957031 208.285156 74.820312 207.554688 74.71875 C 205.199219 74.390625 199.355469 74.183594 194.75 74.183594 C 192.03125 74.183594 189.746094 74.257812 188.863281 74.417969 C 187.441406 74.671875 185.285156 74.949219 183.238281 75.152344 C 182.257812 75.246094 181.226562 75.410156 180.941406 75.519531 C 180.65625 75.609375 179.820312 75.699219 179.070312 75.722656 C 178.324219 75.726562 177.328125 75.816406 176.828125 75.910156 C 176.347656 76 175.332031 76.164062 174.601562 76.257812 C 173.871094 76.347656 172.785156 76.511719 172.199219 76.621094 C 171.753906 76.71875 171.003906 76.773438 170.324219 76.773438 C 170.105469 76.773438 169.894531 76.769531 169.707031 76.757812 C 168.242188 76.671875 167.371094 76.410156 166.582031 75.808594 C 165.886719 75.277344 163.28125 74.433594 161.320312 74.082031 C 160.339844 73.910156 159.34375 73.683594 159.09375 73.59375 C 158.414062 73.347656 156.011719 72.769531 155.632812 72.769531 C 155.273438 72.769531 154.542969 72.238281 153.148438 70.945312 C 152.628906 70.46875 151.914062 69.828125 151.539062 69.527344 C 151.164062 69.210938 150.21875 68.359375 149.429688 67.613281 C 148.519531 66.746094 147.804688 66.210938 147.464844 66.144531 C 147.140625 66.082031 146.878906 66.050781 146.65625 66.050781 Z M 146.65625 66.050781 " fill-opacity="1" fill-rule="nonzero"/></g></svg>